<svg xmlns="http://www.w3.org/2000/svg" viewBox="6 44 116 40"><path d="M102.822 84.694H25.178c-11.42 0-20.678-9.258-20.678-20.678v-.032c0-11.42 9.258-20.678 20.678-20.678h77.644c11.42 0 20.678 9.258 20.678 20.678v.032c0 11.42-9.258 20.678-20.678 20.678z" fill="#4d4d4d"/><path d="M117.841 67.13c-1.726 8.134-9.709 13.326-17.83 11.597s-13.306-9.724-11.58-17.857 9.709-13.326 17.83-11.597 13.306 9.724 11.58 17.857z" fill="#f7931a"/><path d="M108.73 66.33a4.401 4.401 0 0 0-.994-1.368 6.446 6.446 0 0 0-1.034-.764c.32-.065.613-.2.925-.315.468-.2.84-.5 1.16-.843a3.09 3.09 0 0 0 .639-1.328c.123-.595.085-1.168-.17-1.67a3.155 3.155 0 0 0-.975-1.226 5.464 5.464 0 0 0-1.392-.817c-.285-.125-.606-.204-.908-.307l.56-2.643-1.5-.32-.56 2.638-1.552-.34.558-2.63-1.53-.325-.56 2.63-3.228-.684-.334 1.595.473.14.565.2c.22.093.378.195.56.314.135.084.184.14.167.162a.49.49 0 0 1-.001.289l-1.868 8.787c-.026.107-.058.173-.1.24-.017.023-.075.052-.217.072-.04.006-.182.025-.58-.022a4.574 4.574 0 0 1-.713-.086l-.482-.057-.334 1.595 3.315.713-.558 2.627 1.53.325.558-2.63 1.552.34-.556 2.62 1.53.325.554-2.642c.465.08.94.096 1.414.1a6.19 6.19 0 0 0 1.834-.298 3.917 3.917 0 0 0 1.565-.9c.458-.415.77-.975.924-1.657.05-.686.005-1.3-.236-1.843zm-4.34-7.197a1.94 1.94 0 0 1 1.448 2.254c-.208 1.02-1.212 1.656-2.23 1.447l-1.826-.385.783-3.702 1.826.386zm-1.7 9.92l-2.23-.473.932-4.404 2.23.473c1.212.264 1.996 1.455 1.732 2.67a2.231 2.231 0 0 1-2.664 1.735zM26.696 58.36c-.543-.496-1.207-.878-2-1.146s-1.673-.402-2.664-.402a22.18 22.18 0 0 0-4.102.403l-3.237 13.452a17.56 17.56 0 0 0 2.13.322l1.95.1c1.488 0 2.822-.2 4.002-.603s2.182-.975 3.006-1.72 1.458-1.652 1.9-2.725.664-2.285.664-3.64c0-.83-.14-1.588-.422-2.272a4.904 4.904 0 0 0-1.239-1.772zm-1.96 6.665c-.268.73-.647 1.347-1.136 1.85a4.876 4.876 0 0 1-1.79 1.156c-.704.27-1.5.402-2.363.402-.268 0-.48-.003-.633-.01a9.226 9.226 0 0 1-.453-.03l2.13-8.888 1.227-.06c.616 0 1.142.074 1.578.22s.8.36 1.066.634a2.39 2.39 0 0 1 .593.985 4.25 4.25 0 0 1 .181 1.277c.002.912-.132 1.733-.4 2.463zm14.004-3.75a3.406 3.406 0 0 0-1.307-.905c-.53-.214-1.143-.322-1.84-.322-.952 0-1.797.205-2.534.613a6.173 6.173 0 0 0-1.87 1.578 6.885 6.885 0 0 0-1.156 2.172 7.752 7.752 0 0 0-.393 2.413 5.58 5.58 0 0 0 .262 1.759c.174.53.432 1 .773 1.377s.774.7 1.297.905 1.14.32 1.85.32c.98 0 1.84-.205 2.584-.613a5.905 5.905 0 0 0 1.86-1.579 6.956 6.956 0 0 0 1.127-2.171 7.976 7.976 0 0 0 .382-2.413c0-.644-.087-1.23-.26-1.76a3.962 3.962 0 0 0-.776-1.376zm-2.1 4.756a4.758 4.758 0 0 1-.513 1.277 3.28 3.28 0 0 1-.844.965 1.874 1.874 0 0 1-1.166.382c-.563 0-.952-.184-1.166-.553s-.322-.895-.322-1.578c0-.415.057-.855.17-1.317s.284-.888.512-1.277a3.28 3.28 0 0 1 .845-.965 1.878 1.878 0 0 1 1.166-.382c.563 0 .95.184 1.166.553s.32.895.32 1.578c0 .415-.057.855-.17 1.317zm10.646-5.94l-1.438.07a10.637 10.637 0 0 0-2.071.422 40.85 40.85 0 0 1-.754.231L40.58 70.906h2.996l1.95-8.184c.402-.08.797-.12 1.186-.12.402 0 .7.077.894.23a1.01 1.01 0 0 1 .372.603c.052.248.057.536.01.865l-.2 1.015-1.327 5.6h2.996l1.367-5.7c.4-1.58.3-2.828-.3-3.74S48.86 60.1 47.278 60.1zm15.924.783a6.31 6.31 0 0 0-1.227-.442 10.1 10.1 0 0 0-1.226-.231 14.217 14.217 0 0 0-1.67-.111 6.312 6.312 0 0 0-4.634 1.96 6.665 6.665 0 0 0-1.368 2.142 6.957 6.957 0 0 0-.493 2.614c0 .603.067 1.17.2 1.7s.352.992.653 1.387.7.7 1.167.945 1.048.352 1.72.352c.563 0 1.072-.1 1.528-.302a5.33 5.33 0 0 0 1.247-.764l.2.503.222.463 2.675-.382a8.224 8.224 0 0 1-.463-2.061 6.66 6.66 0 0 1 .161-2.303l1.307-5.47zm-4.183 4.947a18.82 18.82 0 0 0-.19 1.016l-.13 1.055c-.28.28-.546.483-.795.603s-.526.18-.834.18c-.577 0-.972-.187-1.186-.563s-.322-.885-.322-1.528a4.58 4.58 0 0 1 .251-1.508 4.25 4.25 0 0 1 .694-1.277 3.648 3.648 0 0 1 1.035-.895 2.513 2.513 0 0 1 1.278-.342 5.652 5.652 0 0 1 .985.08l-.785 3.178zm10.78-8.606l-3.117.482-1.97 8.325a10.44 10.44 0 0 0-.281 1.95c-.027.617.067 1.163.28 1.64s.577.85 1.086 1.126 1.226.412 2.15.412c.644 0 1.2-.054 1.67-.16a10.81 10.81 0 0 0 1.307-.382l-.222-2.292a6.903 6.903 0 0 1-.914.252 4.78 4.78 0 0 1-.935.091c-.375 0-.67-.053-.885-.16a.932.932 0 0 1-.453-.453c-.087-.194-.12-.425-.1-.693a4.93 4.93 0 0 1 .15-.865l.885-3.7h3.317l.603-2.453H69.03l.766-3.117zm12.073 4.554a2.613 2.613 0 0 0-.704-.935 3.19 3.19 0 0 0-1.056-.583 4.11 4.11 0 0 0-1.307-.201c-.952 0-1.82.2-2.604.573a6.33 6.33 0 0 0-2.001 1.508 6.852 6.852 0 0 0-1.277 2.141 7.041 7.041 0 0 0-.453 2.493c0 .603.08 1.174.242 1.7a3.73 3.73 0 0 0 .773 1.408c.355.403.818.72 1.388.955s1.27.352 2.102.352c.683 0 1.317-.06 1.9-.18a9.13 9.13 0 0 0 1.438-.402l-.222-2.353c-.4.148-.804.258-1.246.332a7.88 7.88 0 0 1-1.307.1c-.684 0-1.184-.117-1.498-.352s-.52-.633-.613-1.197a15.24 15.24 0 0 0 2.675-.22c.818-.146 1.525-.385 2.12-.714a3.792 3.792 0 0 0 1.398-1.277c.335-.522.502-1.16.502-1.9a3.03 3.03 0 0 0-.25-1.255zm-2.604 2.182c-.094.188-.28.362-.563.523s-.677.298-1.186.412-1.18.184-2 .2c.16-.804.498-1.45 1.015-1.94s1.116-.734 1.8-.734c.724 0 1.086.32 1.086.965.001.188-.046.375-.14.563z" fill="#fff"/></svg>