<?xml version="1.0" encoding="UTF-8"?><svg xmlns="http://www.w3.org/2000/svg" xmlns:xlink="http://www.w3.org/1999/xlink" version="1.1" id="Layer_1" x="0px" y="0px" viewBox="0 0 128 128" xml:space="preserve"><style type="text/css">.st0{fill:#4D4D4D;} .st1{fill:#F7931A;} .st2{fill:#FFFFFF;}</style><path class="st0" d="M106.515 106.435h-85.03C11.828 106.435 4 98.607 4 88.95s7.828-17.485 17.485-17.485h85.029c9.657 0 17.485 7.828 17.485 17.485.001 9.657-7.827 17.485-17.484 17.485z" fill="#4D4D4D"/><path class="st1" d="M64.456 59.646L59.041 58.5l-1.186 5.594h10.846a5.481 5.481 0 0 0-4.245-4.448z" fill="#F7931A"/><path class="st1" d="M54.673 45.293c.064-.259.079-.511.002-.701.042-.056-.077-.19-.405-.394-.441-.289-.825-.535-1.357-.761-.581-.219-1.057-.403-1.372-.509l-1.148-.34.812-3.867 7.838 1.659 1.356-6.378 3.711.789-1.355 6.372 3.768.825 1.36-6.395.444.094 3.221.685-1.362 6.406c.735.248 1.513.44 2.206.743a13.287 13.287 0 0 1 3.379 1.981 7.664 7.664 0 0 1 2.367 2.973c.62 1.215.713 2.603.414 4.046-.277 1.24-.821 2.367-1.553 3.219-.781.86-1.68 1.586-2.818 2.045-.758.306-1.467.605-2.246.764.98.564 1.77 1.204 2.51 1.852a10.688 10.688 0 0 1 2.415 3.316c.054.122.084.252.13.376h22.281c3.22-19.167-9.211-37.643-28.405-41.723-19.718-4.191-39.1 8.396-43.291 28.113a36.383 36.383 0 0 0-.296 13.61H50.67l4.003-18.8z" fill="#F7931A"/><path class="st1" d="M66.32 46.27l-4.434-.933-1.901 8.973 4.434.933c2.473.506 4.91-1.035 5.416-3.508.513-2.423-1.084-4.903-3.515-5.465z" fill="#F7931A"/><path class="st2" d="M74.447 60.4c-.741-.647-1.531-1.288-2.51-1.852.779-.159 1.488-.458 2.246-.764 1.136-.458 2.036-1.184 2.817-2.044.732-.853 1.275-1.98 1.553-3.219.299-1.443.206-2.831-.414-4.046a7.664 7.664 0 0 0-2.367-2.973 13.317 13.317 0 0 0-3.379-1.981c-.693-.304-1.47-.496-2.206-.743l1.362-6.406-3.221-.685-.444-.094-1.36 6.395-3.768-.825 1.355-6.372-3.711-.789-1.356 6.378-7.838-1.659-.812 3.867 1.148.34c.315.106.791.29 1.372.509.532.226.917.473 1.357.761.329.204.448.338.405.394.077.189.062.442-.002.701l-4.002 18.8h7.161l1.186-5.594 5.415 1.146a5.483 5.483 0 0 1 4.245 4.447h8.314c-.046-.124-.076-.255-.13-.376a10.707 10.707 0 0 0-2.416-3.316zm-4.612-8.665c-.506 2.473-2.943 4.014-5.416 3.508l-4.434-.933 1.901-8.973 4.434.933c2.431.562 4.028 3.042 3.515 5.465z" fill="#FFF"/><path class="st2" d="M33.827 80.768c-.736-.672-1.636-1.19-2.699-1.554-1.064-.363-2.268-.545-3.614-.545a30.411 30.411 0 0 0-5.563.545L17.56 97.458c.927.201 1.89.345 2.891.437 1 .091 1.882.136 2.645.136 2.018 0 3.827-.272 5.427-.818 1.6-.546 2.959-1.323 4.077-2.332 1.118-1.009 1.977-2.241 2.577-3.695.6-1.454.9-3.1.9-4.936 0-1.127-.191-2.154-.573-3.082a6.628 6.628 0 0 0-1.677-2.4zm-2.659 9.04c-.364.991-.877 1.827-1.541 2.509a6.62 6.62 0 0 1-2.427 1.568c-.954.364-2.022.545-3.204.545-.364 0-.65-.004-.859-.014a11.934 11.934 0 0 1-.614-.041l2.891-12.054a17.433 17.433 0 0 1 1.664-.082c.836 0 1.55.1 2.14.3.591.2 1.073.487 1.446.859.372.372.641.818.805 1.336.163.518.245 1.095.245 1.732 0 1.238-.182 2.351-.546 3.342z" fill="#FFF"/><path class="st2" d="M50.162 84.722c-.463-.527-1.054-.936-1.772-1.227-.719-.29-1.55-.436-2.495-.436-1.291 0-2.436.277-3.436.832a8.395 8.395 0 0 0-2.536 2.14 9.373 9.373 0 0 0-1.568 2.945 10.553 10.553 0 0 0-.532 3.273c0 .873.118 1.668.354 2.386a5.289 5.289 0 0 0 1.05 1.868c.464.528 1.05.937 1.759 1.228.709.29 1.545.436 2.509.436 1.327 0 2.495-.277 3.505-.832a8.019 8.019 0 0 0 2.523-2.14 9.484 9.484 0 0 0 1.527-2.945c.345-1.091.518-2.182.518-3.273 0-.873-.118-1.668-.355-2.386a5.342 5.342 0 0 0-1.051-1.869zm-2.863 6.45a6.478 6.478 0 0 1-.696 1.732 4.432 4.432 0 0 1-1.145 1.309 2.54 2.54 0 0 1-1.582.518c-.763 0-1.291-.25-1.582-.75s-.436-1.214-.436-2.141c0-.563.077-1.159.232-1.786a6.457 6.457 0 0 1 .695-1.732 4.446 4.446 0 0 1 1.146-1.309 2.544 2.544 0 0 1 1.582-.518c.764 0 1.291.25 1.582.75.291.5.437 1.213.437 2.141a7.61 7.61 0 0 1-.233 1.786z" fill="#FFF"/><path class="st2" d="M61.738 83.113c-.727 0-1.377.032-1.95.096s-1.091.146-1.554.245c-.464.1-.882.209-1.254.327-.373.118-.714.223-1.023.314l-3.3 13.69h4.063l2.646-11.099a8.19 8.19 0 0 1 1.609-.164c.545 0 .95.105 1.213.314.263.209.432.482.505.818.072.337.077.727.014 1.172-.064.446-.15.905-.259 1.378l-1.8 7.581h4.063l1.854-7.745c.527-2.145.39-3.836-.409-5.073-.801-1.236-2.273-1.854-4.418-1.854z" fill="#FFF"/><path class="st2" d="M83.336 84.177a8.71 8.71 0 0 0-1.663-.6 13.582 13.582 0 0 0-1.664-.314 19.101 19.101 0 0 0-1.404-.123 22.822 22.822 0 0 0-.859-.027c-1.255 0-2.418.236-3.491.709a8.645 8.645 0 0 0-2.795 1.95 9.006 9.006 0 0 0-1.854 2.904 9.412 9.412 0 0 0-.668 3.545c0 .818.091 1.586.273 2.305.181.718.477 1.346.886 1.882.409.537.936.964 1.582 1.281.645.318 1.422.477 2.332.477.763 0 1.454-.136 2.073-.409a7.314 7.314 0 0 0 1.691-1.036c.091.255.182.482.272.682s.191.409.3.627l3.627-.518c-.309-.818-.518-1.75-.627-2.795a9.044 9.044 0 0 1 .218-3.122l1.771-7.418zm-5.672 6.709a27.22 27.22 0 0 0-.259 1.377c-.082.5-.141.978-.177 1.432-.382.382-.741.655-1.078.818a2.55 2.55 0 0 1-1.131.245c-.782 0-1.318-.254-1.609-.763s-.436-1.2-.436-2.073c0-.709.113-1.391.341-2.045a5.76 5.76 0 0 1 .941-1.732c.4-.5.868-.904 1.404-1.213a3.409 3.409 0 0 1 1.732-.463 7.578 7.578 0 0 1 1.335.109l-1.063 4.308z" fill="#FFF"/><path class="st2" d="M92.281 79.213l-4.227.655-2.673 11.29a14.344 14.344 0 0 0-.382 2.646c-.036.836.091 1.577.382 2.223.291.645.782 1.155 1.473 1.527.691.372 1.664.559 2.918.559.873 0 1.627-.073 2.263-.218a14.704 14.704 0 0 0 1.773-.518l-.3-3.109a9.357 9.357 0 0 1-1.241.341 6.438 6.438 0 0 1-1.268.123c-.509 0-.909-.072-1.2-.218a1.253 1.253 0 0 1-.613-.614c-.118-.263-.164-.577-.136-.941.027-.364.095-.754.204-1.173l1.2-5.018h4.5l.818-3.327h-4.527l1.036-4.228z" fill="#FFF"/><path class="st2" d="M108.656 85.39a3.57 3.57 0 0 0-.954-1.268 4.328 4.328 0 0 0-1.432-.791 5.563 5.563 0 0 0-1.772-.272c-1.291 0-2.468.259-3.531.777a8.574 8.574 0 0 0-2.713 2.045 9.262 9.262 0 0 0-1.732 2.904 9.561 9.561 0 0 0-.614 3.382c0 .818.109 1.591.327 2.318a5.032 5.032 0 0 0 1.05 1.909c.482.545 1.109.978 1.882 1.295.772.318 1.722.477 2.849.477.927 0 1.786-.082 2.577-.245.792-.164 1.441-.345 1.95-.545l-.3-3.191c-.527.2-1.091.35-1.691.45-.599.1-1.191.15-1.772.15-.927 0-1.604-.159-2.032-.477s-.705-.859-.831-1.623c1.309 0 2.517-.1 3.626-.3 1.109-.2 2.069-.522 2.878-.968.809-.445 1.44-1.023 1.895-1.732.455-.709.682-1.572.682-2.591-.001-.636-.114-1.203-.342-1.704zm-3.531 2.959c-.127.254-.382.491-.763.709s-.919.404-1.609.559c-.691.155-1.6.25-2.727.286.219-1.091.677-1.968 1.377-2.632.7-.663 1.514-.995 2.441-.995.982 0 1.473.436 1.473 1.309-.001.255-.065.51-.192.764z" fill="#FFF"/><metadata><rdf:RDF xmlns:rdf="http://www.w3.org/1999/02/22-rdf-syntax-ns#" xmlns:rdfs="http://www.w3.org/2000/01/rdf-schema#" xmlns:dc="http://purl.org/dc/elements/1.1/"><rdf:Description about="https://iconscout.com/legal#licenses" dc:title="bitcoin-" dc:description="bitcoin-" dc:publisher="Iconscout" dc:date="2018-07-21" dc:format="image/svg+xml" dc:language="en"><dc:creator><rdf:Bag><rdf:li>Symbolon Studio</rdf:li></rdf:Bag></dc:creator></rdf:Description></rdf:RDF></metadata></svg>